<mxfile host="app.diagrams.net" modified="2022-06-10T06:15:33.483Z" agent="5.0 (Windows NT 10.0; Win64; x64) AppleWebKit/537.36 (KHTML, like Gecko) Chrome/102.0.5005.63 Safari/537.36 Edg/102.0.1245.33" etag="6dK2gjnnDBxHhvICCoOu" version="19.0.3" type="github" pages="3">
  <diagram id="PtAoaNgEPK_n-cfrcMzQ" name="fullAddCount-简易流程">
    <mxGraphModel dx="1858" dy="615" grid="1" gridSize="10" guides="1" tooltips="1" connect="1" arrows="1" fold="1" page="1" pageScale="1" pageWidth="827" pageHeight="1169" background="#F4F1DE" math="0" shadow="0">
      <root>
        <mxCell id="0" />
        <mxCell id="1" parent="0" />
        <mxCell id="ZvqL5PXAN6qHWGEb_X9M-16" style="edgeStyle=orthogonalEdgeStyle;curved=1;rounded=1;sketch=1;orthogonalLoop=1;jettySize=auto;html=1;fontColor=none;strokeColor=#82B366;strokeWidth=2;fillColor=#d5e8d4;shadow=1;" edge="1" parent="1" source="RcvFGfPaWoZL5_CeEI6b-2">
          <mxGeometry relative="1" as="geometry">
            <mxPoint x="430" y="260" as="targetPoint" />
          </mxGeometry>
        </mxCell>
        <mxCell id="RcvFGfPaWoZL5_CeEI6b-2" value="&lt;font color=&quot;#000000&quot;&gt;开始&lt;/font&gt;" style="ellipse;whiteSpace=wrap;html=1;rounded=1;shadow=0;glass=1;sketch=1;fontFamily=Comic Sans MS;fontSize=18;strokeColor=#82b366;fillColor=#d5e8d4;" parent="1" vertex="1">
          <mxGeometry x="370" y="70" width="120" height="110" as="geometry" />
        </mxCell>
        <mxCell id="ZvqL5PXAN6qHWGEb_X9M-18" style="edgeStyle=orthogonalEdgeStyle;curved=1;rounded=1;sketch=1;orthogonalLoop=1;jettySize=auto;html=1;shadow=1;fontSize=16;fontColor=#003300;strokeColor=#82B366;strokeWidth=2;fillColor=#F2CC8F;" edge="1" parent="1" source="ZvqL5PXAN6qHWGEb_X9M-17">
          <mxGeometry relative="1" as="geometry">
            <mxPoint x="430" y="380" as="targetPoint" />
          </mxGeometry>
        </mxCell>
        <mxCell id="ZvqL5PXAN6qHWGEb_X9M-17" value="&lt;b style=&quot;font-size: 16px;&quot;&gt;&lt;font style=&quot;font-size: 16px;&quot;&gt;获取随机数h&lt;/font&gt;&lt;/b&gt;" style="rounded=1;whiteSpace=wrap;html=1;labelBackgroundColor=none;labelBorderColor=none;sketch=1;strokeColor=#82b366;fillColor=#d5e8d4;shadow=0;fontSize=16;fontColor=#003300;" vertex="1" parent="1">
          <mxGeometry x="360" y="260" width="140" height="40" as="geometry" />
        </mxCell>
        <mxCell id="ZvqL5PXAN6qHWGEb_X9M-21" style="edgeStyle=orthogonalEdgeStyle;curved=1;rounded=1;sketch=1;orthogonalLoop=1;jettySize=auto;html=1;shadow=1;fontSize=16;fontColor=#006600;strokeColor=#82B366;strokeWidth=2;fillColor=#F2CC8F;" edge="1" parent="1" source="ZvqL5PXAN6qHWGEb_X9M-19">
          <mxGeometry relative="1" as="geometry">
            <mxPoint x="80" y="560" as="targetPoint" />
          </mxGeometry>
        </mxCell>
        <mxCell id="ZvqL5PXAN6qHWGEb_X9M-36" style="edgeStyle=orthogonalEdgeStyle;curved=1;rounded=1;sketch=1;orthogonalLoop=1;jettySize=auto;html=1;shadow=1;fontFamily=Comic Sans MS;fontSize=18;fontColor=#CC0000;strokeColor=#82B366;strokeWidth=2;fillColor=#F2CC8F;entryX=0.5;entryY=0;entryDx=0;entryDy=0;" edge="1" parent="1" source="ZvqL5PXAN6qHWGEb_X9M-19" target="ZvqL5PXAN6qHWGEb_X9M-37">
          <mxGeometry relative="1" as="geometry">
            <mxPoint x="700" y="510" as="targetPoint" />
          </mxGeometry>
        </mxCell>
        <mxCell id="ZvqL5PXAN6qHWGEb_X9M-19" value="&lt;font color=&quot;#006600&quot;&gt;table==null&lt;/font&gt;" style="rhombus;whiteSpace=wrap;html=1;rounded=1;shadow=1;sketch=1;fontSize=24;fontColor=#ffffff;fillColor=#008a00;strokeColor=#005700;labelBackgroundColor=none;labelBorderColor=none;" vertex="1" parent="1">
          <mxGeometry x="335" y="380" width="190" height="80" as="geometry" />
        </mxCell>
        <mxCell id="ZvqL5PXAN6qHWGEb_X9M-24" style="edgeStyle=orthogonalEdgeStyle;curved=1;rounded=1;sketch=1;orthogonalLoop=1;jettySize=auto;html=1;shadow=1;fontFamily=Comic Sans MS;fontSize=24;fontColor=#663300;strokeColor=#82B366;strokeWidth=2;fillColor=#F2CC8F;" edge="1" parent="1" source="ZvqL5PXAN6qHWGEb_X9M-23">
          <mxGeometry relative="1" as="geometry">
            <mxPoint x="-140" y="740" as="targetPoint" />
          </mxGeometry>
        </mxCell>
        <mxCell id="ZvqL5PXAN6qHWGEb_X9M-27" style="edgeStyle=orthogonalEdgeStyle;curved=1;rounded=1;sketch=1;orthogonalLoop=1;jettySize=auto;html=1;shadow=1;fontFamily=Comic Sans MS;fontSize=24;fontColor=#663300;strokeColor=#82B366;strokeWidth=2;fillColor=#F2CC8F;entryX=0.417;entryY=0;entryDx=0;entryDy=0;entryPerimeter=0;" edge="1" parent="1" source="ZvqL5PXAN6qHWGEb_X9M-23" target="ZvqL5PXAN6qHWGEb_X9M-28">
          <mxGeometry relative="1" as="geometry">
            <mxPoint x="380" y="970" as="targetPoint" />
          </mxGeometry>
        </mxCell>
        <mxCell id="ZvqL5PXAN6qHWGEb_X9M-23" value="initTable" style="rhombus;whiteSpace=wrap;html=1;rounded=1;shadow=0;labelBackgroundColor=none;labelBorderColor=none;sketch=1;fontFamily=Comic Sans MS;fontSize=24;fontColor=#663300;strokeColor=#E07A5F;fillColor=#F2CC8F;" vertex="1" parent="1">
          <mxGeometry x="-20" y="560" width="210" height="90" as="geometry" />
        </mxCell>
        <mxCell id="ZvqL5PXAN6qHWGEb_X9M-25" value="fail" style="text;html=1;strokeColor=#B09500;fillColor=#e3c800;align=center;verticalAlign=middle;whiteSpace=wrap;rounded=1;shadow=0;labelBackgroundColor=none;labelBorderColor=none;sketch=1;fontFamily=Comic Sans MS;fontSize=24;glass=0;fontColor=default;" vertex="1" parent="1">
          <mxGeometry x="-130" y="560" width="100" height="35" as="geometry" />
        </mxCell>
        <mxCell id="ZvqL5PXAN6qHWGEb_X9M-26" value="success" style="text;html=1;strokeColor=#B09500;fillColor=#e3c800;align=center;verticalAlign=middle;whiteSpace=wrap;rounded=1;shadow=0;labelBackgroundColor=none;labelBorderColor=none;sketch=1;fontFamily=Comic Sans MS;fontSize=24;glass=0;fontColor=#000000;" vertex="1" parent="1">
          <mxGeometry x="140" y="550" width="100" height="35" as="geometry" />
        </mxCell>
        <mxCell id="ZvqL5PXAN6qHWGEb_X9M-28" value="end" style="ellipse;whiteSpace=wrap;html=1;rounded=1;shadow=0;glass=0;labelBackgroundColor=none;labelBorderColor=none;sketch=0;fontFamily=Comic Sans MS;fontSize=24;strokeColor=#B20000;fillColor=#e51400;fontColor=#ffffff;" vertex="1" parent="1">
          <mxGeometry x="250" y="1260" width="120" height="80" as="geometry" />
        </mxCell>
        <mxCell id="ZvqL5PXAN6qHWGEb_X9M-30" style="edgeStyle=orthogonalEdgeStyle;curved=1;rounded=1;sketch=1;orthogonalLoop=1;jettySize=auto;html=1;entryX=0;entryY=0.5;entryDx=0;entryDy=0;shadow=1;fontFamily=Comic Sans MS;fontSize=24;fontColor=default;strokeColor=#82B366;strokeWidth=2;fillColor=#F2CC8F;" edge="1" parent="1" source="ZvqL5PXAN6qHWGEb_X9M-29" target="ZvqL5PXAN6qHWGEb_X9M-28">
          <mxGeometry relative="1" as="geometry" />
        </mxCell>
        <mxCell id="rqODi7R4Fsy0qFs16x8B-4" style="edgeStyle=orthogonalEdgeStyle;curved=1;rounded=1;sketch=1;orthogonalLoop=1;jettySize=auto;html=1;entryX=0.5;entryY=0;entryDx=0;entryDy=0;fontFamily=Comic Sans MS;fontSize=18;fontColor=#393C56;strokeColor=#82B366;strokeWidth=3;fillColor=#F2CC8F;" edge="1" parent="1" source="ZvqL5PXAN6qHWGEb_X9M-29" target="rqODi7R4Fsy0qFs16x8B-3">
          <mxGeometry relative="1" as="geometry" />
        </mxCell>
        <mxCell id="ZvqL5PXAN6qHWGEb_X9M-29" value="CAS:baseCount" style="rhombus;whiteSpace=wrap;html=1;rounded=1;shadow=0;glass=0;labelBackgroundColor=none;labelBorderColor=none;sketch=1;fontFamily=Comic Sans MS;fontSize=24;strokeColor=#990000;fillColor=#F2CC8F;" vertex="1" parent="1">
          <mxGeometry x="-250" y="740" width="230" height="90" as="geometry" />
        </mxCell>
        <mxCell id="ZvqL5PXAN6qHWGEb_X9M-31" value="success" style="text;html=1;strokeColor=#B09500;fillColor=#e3c800;align=center;verticalAlign=middle;whiteSpace=wrap;rounded=1;shadow=0;labelBackgroundColor=none;labelBorderColor=none;sketch=1;fontFamily=Comic Sans MS;fontSize=24;glass=0;fontColor=#000000;" vertex="1" parent="1">
          <mxGeometry x="-20" y="740" width="100" height="35" as="geometry" />
        </mxCell>
        <mxCell id="ZvqL5PXAN6qHWGEb_X9M-33" value="fail" style="text;html=1;strokeColor=#B09500;fillColor=#e3c800;align=center;verticalAlign=middle;whiteSpace=wrap;rounded=1;shadow=0;labelBackgroundColor=none;labelBorderColor=none;sketch=1;fontFamily=Comic Sans MS;fontSize=24;glass=0;fontColor=default;" vertex="1" parent="1">
          <mxGeometry x="-360" y="740" width="100" height="35" as="geometry" />
        </mxCell>
        <mxCell id="ZvqL5PXAN6qHWGEb_X9M-35" value="&lt;font color=&quot;#cc0000&quot;&gt;null&lt;/font&gt;" style="text;html=1;strokeColor=#BD7000;fillColor=#f0a30a;align=center;verticalAlign=middle;whiteSpace=wrap;rounded=1;shadow=0;glass=1;labelBackgroundColor=none;labelBorderColor=none;sketch=1;fontFamily=Comic Sans MS;fontSize=18;fontColor=#000000;" vertex="1" parent="1">
          <mxGeometry x="220" y="390" width="60" height="30" as="geometry" />
        </mxCell>
        <mxCell id="ZvqL5PXAN6qHWGEb_X9M-40" style="edgeStyle=orthogonalEdgeStyle;curved=1;rounded=1;sketch=1;orthogonalLoop=1;jettySize=auto;html=1;shadow=1;fontFamily=Comic Sans MS;fontSize=18;fontColor=#CC0000;strokeColor=#82B366;strokeWidth=2;fillColor=#F2CC8F;" edge="1" parent="1" source="ZvqL5PXAN6qHWGEb_X9M-37">
          <mxGeometry relative="1" as="geometry">
            <mxPoint x="640" y="660" as="targetPoint" />
          </mxGeometry>
        </mxCell>
        <mxCell id="ZvqL5PXAN6qHWGEb_X9M-44" style="edgeStyle=orthogonalEdgeStyle;curved=1;rounded=1;sketch=1;orthogonalLoop=1;jettySize=auto;html=1;shadow=1;fontFamily=Comic Sans MS;fontSize=18;fontColor=#CC0000;strokeColor=#82B366;strokeWidth=2;fillColor=#F2CC8F;entryX=0.5;entryY=0;entryDx=0;entryDy=0;exitX=1;exitY=0.5;exitDx=0;exitDy=0;" edge="1" parent="1" source="ZvqL5PXAN6qHWGEb_X9M-37" target="ZvqL5PXAN6qHWGEb_X9M-47">
          <mxGeometry relative="1" as="geometry">
            <mxPoint x="1090" y="670" as="targetPoint" />
            <Array as="points">
              <mxPoint x="1085" y="529" />
            </Array>
          </mxGeometry>
        </mxCell>
        <mxCell id="ZvqL5PXAN6qHWGEb_X9M-37" value="获取到CounterCell对象&lt;br&gt;简称cell" style="rhombus;whiteSpace=wrap;html=1;rounded=1;shadow=0;glass=1;labelBackgroundColor=none;labelBorderColor=none;sketch=1;fontFamily=Comic Sans MS;fontSize=18;fontColor=#CC0000;strokeColor=#999900;fillColor=#F2CC8F;" vertex="1" parent="1">
          <mxGeometry x="730" y="490" width="290" height="77.5" as="geometry" />
        </mxCell>
        <mxCell id="ZvqL5PXAN6qHWGEb_X9M-38" value="not&amp;nbsp; null" style="text;html=1;strokeColor=#BD7000;fillColor=#f0a30a;align=center;verticalAlign=middle;whiteSpace=wrap;rounded=0;shadow=0;glass=1;labelBackgroundColor=none;labelBorderColor=none;sketch=1;fontFamily=Comic Sans MS;fontSize=18;fontColor=#000000;" vertex="1" parent="1">
          <mxGeometry x="650" y="480" width="80" height="40" as="geometry" />
        </mxCell>
        <mxCell id="ZvqL5PXAN6qHWGEb_X9M-42" style="edgeStyle=orthogonalEdgeStyle;curved=1;rounded=1;sketch=1;orthogonalLoop=1;jettySize=auto;html=1;shadow=1;fontFamily=Comic Sans MS;fontSize=18;fontColor=#CC0000;strokeColor=#82B366;strokeWidth=2;fillColor=#F2CC8F;" edge="1" parent="1" source="ZvqL5PXAN6qHWGEb_X9M-41" target="ZvqL5PXAN6qHWGEb_X9M-28">
          <mxGeometry relative="1" as="geometry" />
        </mxCell>
        <mxCell id="ZvqL5PXAN6qHWGEb_X9M-50" style="edgeStyle=orthogonalEdgeStyle;curved=1;rounded=1;sketch=1;orthogonalLoop=1;jettySize=auto;html=1;shadow=1;fontFamily=Comic Sans MS;fontSize=18;fontColor=#CC0000;strokeColor=#82B366;strokeWidth=2;fillColor=#F2CC8F;entryX=0.5;entryY=0;entryDx=0;entryDy=0;" edge="1" parent="1" source="ZvqL5PXAN6qHWGEb_X9M-41" target="ZvqL5PXAN6qHWGEb_X9M-52">
          <mxGeometry relative="1" as="geometry">
            <mxPoint x="790" y="890" as="targetPoint" />
            <Array as="points">
              <mxPoint x="795" y="700" />
            </Array>
          </mxGeometry>
        </mxCell>
        <mxCell id="ZvqL5PXAN6qHWGEb_X9M-41" value="CAS：cell计数" style="rhombus;whiteSpace=wrap;html=1;rounded=1;shadow=0;glass=1;labelBackgroundColor=none;labelBorderColor=none;sketch=1;fontFamily=Comic Sans MS;fontSize=18;fontColor=#CC0000;strokeColor=#999900;fillColor=#F2CC8F;" vertex="1" parent="1">
          <mxGeometry x="540" y="660" width="190" height="80" as="geometry" />
        </mxCell>
        <mxCell id="ZvqL5PXAN6qHWGEb_X9M-43" value="fail" style="text;html=1;strokeColor=#B09500;fillColor=#e3c800;align=center;verticalAlign=middle;whiteSpace=wrap;rounded=1;shadow=0;labelBackgroundColor=none;labelBorderColor=none;sketch=1;fontFamily=Comic Sans MS;fontSize=24;glass=0;fontColor=#000000;" vertex="1" parent="1">
          <mxGeometry x="1200" y="690" width="100" height="35" as="geometry" />
        </mxCell>
        <mxCell id="ZvqL5PXAN6qHWGEb_X9M-45" value="not&amp;nbsp; null" style="text;html=1;strokeColor=#BD7000;fillColor=#f0a30a;align=center;verticalAlign=middle;whiteSpace=wrap;rounded=0;shadow=0;glass=1;labelBackgroundColor=none;labelBorderColor=none;sketch=1;fontFamily=Comic Sans MS;fontSize=18;fontColor=#000000;" vertex="1" parent="1">
          <mxGeometry x="525" y="370" width="100" height="40" as="geometry" />
        </mxCell>
        <mxCell id="ZvqL5PXAN6qHWGEb_X9M-46" value="&lt;font color=&quot;#cc0000&quot;&gt;null&lt;/font&gt;" style="text;html=1;strokeColor=#BD7000;fillColor=#f0a30a;align=center;verticalAlign=middle;whiteSpace=wrap;rounded=1;shadow=0;glass=1;labelBackgroundColor=none;labelBorderColor=none;sketch=1;fontFamily=Comic Sans MS;fontSize=18;fontColor=#000000;" vertex="1" parent="1">
          <mxGeometry x="1010" y="480" width="60" height="30" as="geometry" />
        </mxCell>
        <mxCell id="ZvqL5PXAN6qHWGEb_X9M-66" style="edgeStyle=orthogonalEdgeStyle;curved=1;rounded=1;sketch=1;orthogonalLoop=1;jettySize=auto;html=1;shadow=1;fontFamily=Comic Sans MS;fontSize=18;fontColor=#CC0000;strokeColor=#82B366;strokeWidth=2;fillColor=#F2CC8F;entryX=0.5;entryY=0;entryDx=0;entryDy=0;" edge="1" parent="1" source="ZvqL5PXAN6qHWGEb_X9M-47" target="ZvqL5PXAN6qHWGEb_X9M-67">
          <mxGeometry relative="1" as="geometry">
            <mxPoint x="1145" y="920" as="targetPoint" />
          </mxGeometry>
        </mxCell>
        <mxCell id="rqODi7R4Fsy0qFs16x8B-2" style="edgeStyle=orthogonalEdgeStyle;curved=1;rounded=1;sketch=1;orthogonalLoop=1;jettySize=auto;html=1;entryX=0;entryY=0.5;entryDx=0;entryDy=0;fontFamily=Comic Sans MS;fontSize=18;fontColor=#393C56;strokeColor=#82B366;strokeWidth=3;fillColor=#F2CC8F;" edge="1" parent="1" source="ZvqL5PXAN6qHWGEb_X9M-47" target="rqODi7R4Fsy0qFs16x8B-1">
          <mxGeometry relative="1" as="geometry" />
        </mxCell>
        <mxCell id="ZvqL5PXAN6qHWGEb_X9M-47" value="CAS：创建cell设置到table中" style="rhombus;whiteSpace=wrap;html=1;rounded=1;shadow=0;glass=1;labelBackgroundColor=none;labelBorderColor=none;sketch=1;fontFamily=Comic Sans MS;fontSize=18;fontColor=#CC0000;strokeColor=#999900;fillColor=#F2CC8F;" vertex="1" parent="1">
          <mxGeometry x="1010" y="717.5" width="270" height="80" as="geometry" />
        </mxCell>
        <mxCell id="ZvqL5PXAN6qHWGEb_X9M-49" value="success" style="text;html=1;strokeColor=#B09500;fillColor=#e3c800;align=center;verticalAlign=middle;whiteSpace=wrap;rounded=1;shadow=0;labelBackgroundColor=none;labelBorderColor=none;sketch=1;fontFamily=Comic Sans MS;fontSize=24;glass=0;fontColor=#000000;" vertex="1" parent="1">
          <mxGeometry x="610" y="1134" width="100" height="35" as="geometry" />
        </mxCell>
        <mxCell id="ZvqL5PXAN6qHWGEb_X9M-51" value="fail" style="text;html=1;strokeColor=#B09500;fillColor=#e3c800;align=center;verticalAlign=middle;whiteSpace=wrap;rounded=1;shadow=0;labelBackgroundColor=none;labelBorderColor=none;sketch=1;fontFamily=Comic Sans MS;fontSize=24;glass=0;fontColor=#000000;" vertex="1" parent="1">
          <mxGeometry x="710" y="650" width="60" height="40" as="geometry" />
        </mxCell>
        <mxCell id="ZvqL5PXAN6qHWGEb_X9M-53" style="edgeStyle=orthogonalEdgeStyle;curved=1;rounded=1;sketch=1;orthogonalLoop=1;jettySize=auto;html=1;shadow=1;fontFamily=Comic Sans MS;fontSize=18;fontColor=#CC0000;strokeColor=#82B366;strokeWidth=2;fillColor=#F2CC8F;entryX=0.5;entryY=0;entryDx=0;entryDy=0;" edge="1" parent="1" source="ZvqL5PXAN6qHWGEb_X9M-52" target="ZvqL5PXAN6qHWGEb_X9M-59">
          <mxGeometry relative="1" as="geometry">
            <mxPoint x="610" y="1060" as="targetPoint" />
          </mxGeometry>
        </mxCell>
        <mxCell id="LTd52-BoontHftPqqych-2" style="edgeStyle=orthogonalEdgeStyle;curved=1;rounded=1;sketch=1;orthogonalLoop=1;jettySize=auto;html=1;entryX=0.5;entryY=0;entryDx=0;entryDy=0;fontFamily=Comic Sans MS;fontSize=18;fontColor=#393C56;strokeColor=#82B366;strokeWidth=3;fillColor=#F2CC8F;" edge="1" parent="1" source="ZvqL5PXAN6qHWGEb_X9M-52" target="ZvqL5PXAN6qHWGEb_X9M-64">
          <mxGeometry relative="1" as="geometry">
            <Array as="points">
              <mxPoint x="805" y="961" />
              <mxPoint x="880" y="961" />
            </Array>
          </mxGeometry>
        </mxCell>
        <mxCell id="ZvqL5PXAN6qHWGEb_X9M-52" value="判断是否扩容" style="rhombus;whiteSpace=wrap;html=1;rounded=1;shadow=0;glass=1;labelBackgroundColor=none;labelBorderColor=none;sketch=1;fontFamily=Comic Sans MS;fontSize=18;fontColor=#CC0000;strokeColor=#999900;fillColor=#F2CC8F;" vertex="1" parent="1">
          <mxGeometry x="720" y="797.5" width="170" height="90" as="geometry" />
        </mxCell>
        <mxCell id="ZvqL5PXAN6qHWGEb_X9M-54" value="扩容" style="text;html=1;strokeColor=#B09500;fillColor=#e3c800;align=center;verticalAlign=middle;whiteSpace=wrap;rounded=1;shadow=0;labelBackgroundColor=none;labelBorderColor=none;sketch=1;fontFamily=Comic Sans MS;fontSize=24;glass=0;fontColor=#000000;" vertex="1" parent="1">
          <mxGeometry x="680" y="785" width="70" height="40" as="geometry" />
        </mxCell>
        <mxCell id="ZvqL5PXAN6qHWGEb_X9M-56" value="不扩容" style="text;html=1;strokeColor=#B09500;fillColor=#e3c800;align=center;verticalAlign=middle;whiteSpace=wrap;rounded=1;shadow=0;labelBackgroundColor=none;labelBorderColor=none;sketch=1;fontFamily=Comic Sans MS;fontSize=24;glass=0;fontColor=#000000;" vertex="1" parent="1">
          <mxGeometry x="850" y="775" width="80" height="40" as="geometry" />
        </mxCell>
        <mxCell id="ZvqL5PXAN6qHWGEb_X9M-58" value="回到循环，在下次循环中继续尝试累加值" style="ellipse;whiteSpace=wrap;html=1;rounded=1;shadow=0;glass=1;labelBackgroundColor=none;labelBorderColor=none;sketch=0;fontFamily=Comic Sans MS;fontSize=18;fontColor=#ffffff;strokeColor=#005700;fillColor=#008a00;" vertex="1" parent="1">
          <mxGeometry x="780" y="1210" width="170" height="130" as="geometry" />
        </mxCell>
        <mxCell id="LTd52-BoontHftPqqych-3" style="edgeStyle=orthogonalEdgeStyle;curved=1;rounded=1;sketch=1;orthogonalLoop=1;jettySize=auto;html=1;entryX=0;entryY=0.5;entryDx=0;entryDy=0;fontFamily=Comic Sans MS;fontSize=18;fontColor=#393C56;strokeColor=#82B366;strokeWidth=3;fillColor=#F2CC8F;" edge="1" parent="1" source="ZvqL5PXAN6qHWGEb_X9M-59" target="ZvqL5PXAN6qHWGEb_X9M-64">
          <mxGeometry relative="1" as="geometry" />
        </mxCell>
        <mxCell id="LTd52-BoontHftPqqych-5" style="edgeStyle=orthogonalEdgeStyle;curved=1;rounded=1;sketch=1;orthogonalLoop=1;jettySize=auto;html=1;fontFamily=Comic Sans MS;fontSize=18;fontColor=#393C56;strokeColor=#82B366;strokeWidth=3;fillColor=#F2CC8F;entryX=0.5;entryY=1;entryDx=0;entryDy=0;" edge="1" parent="1" source="ZvqL5PXAN6qHWGEb_X9M-59" target="ZvqL5PXAN6qHWGEb_X9M-58">
          <mxGeometry relative="1" as="geometry">
            <mxPoint x="860" y="1350" as="targetPoint" />
            <Array as="points">
              <mxPoint x="600" y="1400" />
              <mxPoint x="865" y="1400" />
            </Array>
          </mxGeometry>
        </mxCell>
        <mxCell id="ZvqL5PXAN6qHWGEb_X9M-59" value="CAS:resize" style="rhombus;whiteSpace=wrap;html=1;rounded=1;shadow=0;glass=1;labelBackgroundColor=none;labelBorderColor=none;sketch=1;fontFamily=Comic Sans MS;fontSize=18;fontColor=#CC0000;strokeColor=#999900;fillColor=#F2CC8F;" vertex="1" parent="1">
          <mxGeometry x="540" y="1010" width="130" height="110" as="geometry" />
        </mxCell>
        <mxCell id="ZvqL5PXAN6qHWGEb_X9M-62" value="success" style="text;html=1;strokeColor=#B09500;fillColor=#e3c800;align=center;verticalAlign=middle;whiteSpace=wrap;rounded=1;shadow=0;labelBackgroundColor=none;labelBorderColor=none;sketch=1;fontFamily=Comic Sans MS;fontSize=24;glass=0;fontColor=#000000;" vertex="1" parent="1">
          <mxGeometry x="1160" y="825" width="100" height="35" as="geometry" />
        </mxCell>
        <mxCell id="ZvqL5PXAN6qHWGEb_X9M-63" value="fail" style="text;html=1;strokeColor=#B09500;fillColor=#e3c800;align=center;verticalAlign=middle;whiteSpace=wrap;rounded=1;shadow=0;labelBackgroundColor=none;labelBorderColor=none;sketch=1;fontFamily=Comic Sans MS;fontSize=24;glass=0;fontColor=#000000;" vertex="1" parent="1">
          <mxGeometry x="685" y="1020" width="85" height="40" as="geometry" />
        </mxCell>
        <mxCell id="LTd52-BoontHftPqqych-6" style="edgeStyle=orthogonalEdgeStyle;curved=1;rounded=1;sketch=1;orthogonalLoop=1;jettySize=auto;html=1;entryX=0.6;entryY=0.004;entryDx=0;entryDy=0;entryPerimeter=0;fontFamily=Comic Sans MS;fontSize=18;fontColor=#393C56;strokeColor=#82B366;strokeWidth=3;fillColor=#F2CC8F;" edge="1" parent="1" source="ZvqL5PXAN6qHWGEb_X9M-64" target="ZvqL5PXAN6qHWGEb_X9M-58">
          <mxGeometry relative="1" as="geometry" />
        </mxCell>
        <mxCell id="ZvqL5PXAN6qHWGEb_X9M-64" value="重新生成随机数" style="rounded=1;whiteSpace=wrap;html=1;shadow=0;glass=0;labelBackgroundColor=none;labelBorderColor=none;sketch=1;fontFamily=Comic Sans MS;fontSize=18;fontColor=#000000;strokeColor=#B09500;fillColor=#e3c800;" vertex="1" parent="1">
          <mxGeometry x="820" y="1035" width="120" height="60" as="geometry" />
        </mxCell>
        <mxCell id="ZvqL5PXAN6qHWGEb_X9M-67" value="end" style="ellipse;whiteSpace=wrap;html=1;aspect=fixed;rounded=1;shadow=0;glass=1;labelBackgroundColor=none;labelBorderColor=none;sketch=0;fontFamily=Comic Sans MS;fontSize=18;fontColor=#ffffff;strokeColor=#B20000;fillColor=#e51400;" vertex="1" parent="1">
          <mxGeometry x="1105" y="940" width="80" height="80" as="geometry" />
        </mxCell>
        <mxCell id="3vEEDrrVyV3aPoAWl_eb-1" value="success" style="text;html=1;strokeColor=#B09500;fillColor=#e3c800;align=center;verticalAlign=middle;whiteSpace=wrap;rounded=1;shadow=0;labelBackgroundColor=none;labelBorderColor=none;sketch=1;fontFamily=Comic Sans MS;fontSize=24;glass=0;fontColor=#000000;" vertex="1" parent="1">
          <mxGeometry x="400" y="670" width="100" height="35" as="geometry" />
        </mxCell>
        <mxCell id="rqODi7R4Fsy0qFs16x8B-1" value="回到循环，在下次循环中继续尝试累加值" style="ellipse;whiteSpace=wrap;html=1;rounded=1;shadow=0;glass=1;labelBackgroundColor=none;labelBorderColor=none;sketch=0;fontFamily=Comic Sans MS;fontSize=18;fontColor=#ffffff;strokeColor=#005700;fillColor=#008a00;" vertex="1" parent="1">
          <mxGeometry x="1420" y="692.5" width="170" height="130" as="geometry" />
        </mxCell>
        <mxCell id="rqODi7R4Fsy0qFs16x8B-3" value="回到循环，在下次循环中继续尝试累加值" style="ellipse;whiteSpace=wrap;html=1;rounded=1;shadow=0;glass=1;labelBackgroundColor=none;labelBorderColor=none;sketch=0;fontFamily=Comic Sans MS;fontSize=18;fontColor=#ffffff;strokeColor=#005700;fillColor=#008a00;" vertex="1" parent="1">
          <mxGeometry x="-480" y="1039" width="170" height="130" as="geometry" />
        </mxCell>
      </root>
    </mxGraphModel>
  </diagram>
  <diagram id="FoH53bW1Y-_0TWIwf9dY" name="fullAddCount-简图">
    <mxGraphModel dx="979" dy="584" grid="1" gridSize="10" guides="1" tooltips="1" connect="1" arrows="1" fold="1" page="1" pageScale="1" pageWidth="827" pageHeight="1169" math="0" shadow="0">
      <root>
        <mxCell id="0" />
        <mxCell id="1" parent="0" />
        <mxCell id="UmWm9GWyAPiXQZQgzfcU-2" style="edgeStyle=orthogonalEdgeStyle;curved=1;rounded=1;sketch=1;orthogonalLoop=1;jettySize=auto;html=1;shadow=1;fontFamily=Comic Sans MS;fontSize=18;fontColor=#CC0000;strokeColor=#82B366;strokeWidth=2;fillColor=#F2CC8F;" edge="1" parent="1" source="UmWm9GWyAPiXQZQgzfcU-1">
          <mxGeometry relative="1" as="geometry">
            <mxPoint x="410" y="240" as="targetPoint" />
          </mxGeometry>
        </mxCell>
        <mxCell id="UmWm9GWyAPiXQZQgzfcU-1" value="start" style="ellipse;whiteSpace=wrap;html=1;rounded=1;shadow=0;glass=1;labelBackgroundColor=none;labelBorderColor=none;sketch=1;fontFamily=Comic Sans MS;fontSize=18;fontColor=#CC0000;strokeColor=#999900;fillColor=#F2CC8F;" vertex="1" parent="1">
          <mxGeometry x="350" y="110" width="120" height="60" as="geometry" />
        </mxCell>
        <mxCell id="UmWm9GWyAPiXQZQgzfcU-4" style="edgeStyle=orthogonalEdgeStyle;curved=1;rounded=1;sketch=1;orthogonalLoop=1;jettySize=auto;html=1;shadow=1;fontFamily=Comic Sans MS;fontSize=18;fontColor=#CC0000;strokeColor=#82B366;strokeWidth=2;fillColor=#F2CC8F;" edge="1" parent="1" source="UmWm9GWyAPiXQZQgzfcU-3" target="UmWm9GWyAPiXQZQgzfcU-5">
          <mxGeometry relative="1" as="geometry">
            <mxPoint x="412" y="350" as="targetPoint" />
          </mxGeometry>
        </mxCell>
        <mxCell id="UmWm9GWyAPiXQZQgzfcU-3" value="获取h" style="rounded=1;whiteSpace=wrap;html=1;shadow=0;glass=1;labelBackgroundColor=none;labelBorderColor=none;sketch=1;fontFamily=Comic Sans MS;fontSize=18;fontColor=#CC0000;strokeColor=#999900;fillColor=#F2CC8F;" vertex="1" parent="1">
          <mxGeometry x="354" y="250" width="116" height="50" as="geometry" />
        </mxCell>
        <mxCell id="UmWm9GWyAPiXQZQgzfcU-6" style="edgeStyle=orthogonalEdgeStyle;curved=1;rounded=1;sketch=1;orthogonalLoop=1;jettySize=auto;html=1;shadow=1;fontFamily=Comic Sans MS;fontSize=18;fontColor=#000000;strokeColor=#82B366;strokeWidth=2;fillColor=#F2CC8F;entryX=0.5;entryY=0;entryDx=0;entryDy=0;" edge="1" parent="1" source="UmWm9GWyAPiXQZQgzfcU-5" target="UmWm9GWyAPiXQZQgzfcU-8">
          <mxGeometry relative="1" as="geometry">
            <mxPoint x="150" y="510" as="targetPoint" />
          </mxGeometry>
        </mxCell>
        <mxCell id="UmWm9GWyAPiXQZQgzfcU-11" style="edgeStyle=orthogonalEdgeStyle;curved=1;rounded=1;sketch=1;orthogonalLoop=1;jettySize=auto;html=1;shadow=1;fontFamily=Comic Sans MS;fontSize=18;fontColor=#000000;strokeColor=#82B366;strokeWidth=2;fillColor=#F2CC8F;" edge="1" parent="1" source="UmWm9GWyAPiXQZQgzfcU-5">
          <mxGeometry relative="1" as="geometry">
            <mxPoint x="680" y="490" as="targetPoint" />
          </mxGeometry>
        </mxCell>
        <mxCell id="UmWm9GWyAPiXQZQgzfcU-5" value="&lt;font color=&quot;#000000&quot;&gt;table==null&lt;/font&gt;" style="rhombus;whiteSpace=wrap;html=1;rounded=1;shadow=1;sketch=1;fontSize=24;fontColor=#ffffff;fillColor=#008a00;strokeColor=#005700;glass=1;labelBackgroundColor=none;labelBorderColor=none;fontFamily=Comic Sans MS;" vertex="1" parent="1">
          <mxGeometry x="320.5" y="350" width="183" height="70" as="geometry" />
        </mxCell>
        <mxCell id="UmWm9GWyAPiXQZQgzfcU-7" value="null" style="text;html=1;strokeColor=#BD7000;fillColor=#f0a30a;align=center;verticalAlign=middle;whiteSpace=wrap;rounded=0;shadow=0;glass=1;labelBackgroundColor=none;labelBorderColor=none;sketch=1;fontFamily=Comic Sans MS;fontSize=18;fontColor=#000000;" vertex="1" parent="1">
          <mxGeometry x="230" y="350" width="60" height="30" as="geometry" />
        </mxCell>
        <mxCell id="UmWm9GWyAPiXQZQgzfcU-9" style="edgeStyle=orthogonalEdgeStyle;curved=1;rounded=1;sketch=1;orthogonalLoop=1;jettySize=auto;html=1;shadow=1;fontFamily=Comic Sans MS;fontSize=18;fontColor=#000000;strokeColor=#82B366;strokeWidth=2;fillColor=#F2CC8F;entryX=0.5;entryY=0;entryDx=0;entryDy=0;" edge="1" parent="1" source="UmWm9GWyAPiXQZQgzfcU-8" target="UmWm9GWyAPiXQZQgzfcU-10">
          <mxGeometry relative="1" as="geometry">
            <mxPoint x="150" y="863.0770263671875" as="targetPoint" />
            <Array as="points">
              <mxPoint x="150" y="800" />
              <mxPoint x="180" y="800" />
              <mxPoint x="180" y="1080" />
            </Array>
          </mxGeometry>
        </mxCell>
        <mxCell id="UmWm9GWyAPiXQZQgzfcU-8" value="initTable" style="rounded=1;whiteSpace=wrap;html=1;shadow=0;glass=1;labelBackgroundColor=none;labelBorderColor=none;sketch=1;fontFamily=Comic Sans MS;fontSize=18;fontColor=#000000;strokeColor=#999900;fillColor=#F2CC8F;" vertex="1" parent="1">
          <mxGeometry x="90" y="520" width="120" height="60" as="geometry" />
        </mxCell>
        <mxCell id="UmWm9GWyAPiXQZQgzfcU-10" value="end" style="ellipse;whiteSpace=wrap;html=1;rounded=1;shadow=0;glass=1;labelBackgroundColor=none;labelBorderColor=none;sketch=1;fontFamily=Comic Sans MS;fontSize=18;fontColor=#000000;strokeColor=#999900;fillColor=#F2CC8F;" vertex="1" parent="1">
          <mxGeometry x="220" y="1080" width="120" height="80" as="geometry" />
        </mxCell>
        <mxCell id="UmWm9GWyAPiXQZQgzfcU-12" value="not&amp;nbsp; null" style="text;html=1;strokeColor=#BD7000;fillColor=#f0a30a;align=center;verticalAlign=middle;whiteSpace=wrap;rounded=0;shadow=0;glass=1;labelBackgroundColor=none;labelBorderColor=none;sketch=1;fontFamily=Comic Sans MS;fontSize=18;fontColor=#000000;" vertex="1" parent="1">
          <mxGeometry x="503.5" y="350" width="100" height="30" as="geometry" />
        </mxCell>
        <mxCell id="UmWm9GWyAPiXQZQgzfcU-15" style="edgeStyle=orthogonalEdgeStyle;curved=1;rounded=1;sketch=1;orthogonalLoop=1;jettySize=auto;html=1;shadow=1;fontFamily=Comic Sans MS;fontSize=18;fontColor=#006600;strokeColor=#82B366;strokeWidth=2;fillColor=#F2CC8F;" edge="1" parent="1" source="UmWm9GWyAPiXQZQgzfcU-14">
          <mxGeometry relative="1" as="geometry">
            <mxPoint x="680" y="600" as="targetPoint" />
          </mxGeometry>
        </mxCell>
        <mxCell id="UmWm9GWyAPiXQZQgzfcU-14" value="&lt;font color=&quot;#006600&quot;&gt;获取数组的cell对象&lt;/font&gt;" style="text;html=1;strokeColor=#2D7600;fillColor=#60a917;align=center;verticalAlign=middle;whiteSpace=wrap;rounded=1;fontSize=18;sketch=1;fontColor=#ffffff;" vertex="1" parent="1">
          <mxGeometry x="600" y="490" width="160" height="60" as="geometry" />
        </mxCell>
        <mxCell id="UmWm9GWyAPiXQZQgzfcU-17" style="edgeStyle=orthogonalEdgeStyle;curved=1;rounded=1;sketch=1;orthogonalLoop=1;jettySize=auto;html=1;shadow=1;fontFamily=Comic Sans MS;fontSize=18;fontColor=#006600;strokeColor=#82B366;strokeWidth=2;fillColor=#F2CC8F;" edge="1" parent="1" source="UmWm9GWyAPiXQZQgzfcU-16">
          <mxGeometry relative="1" as="geometry">
            <mxPoint x="520" y="750" as="targetPoint" />
          </mxGeometry>
        </mxCell>
        <mxCell id="UmWm9GWyAPiXQZQgzfcU-22" style="edgeStyle=orthogonalEdgeStyle;curved=1;rounded=1;sketch=1;orthogonalLoop=1;jettySize=auto;html=1;shadow=1;fontFamily=Comic Sans MS;fontSize=18;fontColor=#006600;strokeColor=#82B366;strokeWidth=2;fillColor=#F2CC8F;entryX=0.5;entryY=0;entryDx=0;entryDy=0;" edge="1" parent="1" source="UmWm9GWyAPiXQZQgzfcU-16" target="UmWm9GWyAPiXQZQgzfcU-24">
          <mxGeometry relative="1" as="geometry">
            <mxPoint x="860" y="810" as="targetPoint" />
          </mxGeometry>
        </mxCell>
        <mxCell id="UmWm9GWyAPiXQZQgzfcU-16" value="cell==null" style="rhombus;whiteSpace=wrap;html=1;rounded=1;shadow=0;glass=1;labelBackgroundColor=none;labelBorderColor=none;sketch=1;fontFamily=Comic Sans MS;fontSize=18;fontColor=#006600;strokeColor=#999900;fillColor=#F2CC8F;" vertex="1" parent="1">
          <mxGeometry x="590" y="600" width="180" height="80" as="geometry" />
        </mxCell>
        <mxCell id="UmWm9GWyAPiXQZQgzfcU-18" value="null" style="text;html=1;strokeColor=#BD7000;fillColor=#f0a30a;align=center;verticalAlign=middle;whiteSpace=wrap;rounded=0;shadow=0;glass=1;labelBackgroundColor=none;labelBorderColor=none;sketch=1;fontFamily=Comic Sans MS;fontSize=18;fontColor=#000000;" vertex="1" parent="1">
          <mxGeometry x="490" y="620" width="60" height="30" as="geometry" />
        </mxCell>
        <mxCell id="UmWm9GWyAPiXQZQgzfcU-21" style="edgeStyle=orthogonalEdgeStyle;curved=1;rounded=1;sketch=1;orthogonalLoop=1;jettySize=auto;html=1;entryX=0.655;entryY=0.042;entryDx=0;entryDy=0;entryPerimeter=0;shadow=1;fontFamily=Comic Sans MS;fontSize=18;fontColor=#006600;strokeColor=#82B366;strokeWidth=2;fillColor=#F2CC8F;" edge="1" parent="1" source="UmWm9GWyAPiXQZQgzfcU-20" target="UmWm9GWyAPiXQZQgzfcU-10">
          <mxGeometry relative="1" as="geometry">
            <Array as="points">
              <mxPoint x="520" y="910" />
              <mxPoint x="299" y="910" />
            </Array>
          </mxGeometry>
        </mxCell>
        <mxCell id="UmWm9GWyAPiXQZQgzfcU-20" value="&lt;font color=&quot;#006600&quot;&gt;创建cell对象完成计数，并将cell设置到table中&lt;/font&gt;" style="text;html=1;strokeColor=#2D7600;fillColor=#60a917;align=center;verticalAlign=middle;whiteSpace=wrap;rounded=1;fontSize=18;sketch=1;fontColor=#ffffff;" vertex="1" parent="1">
          <mxGeometry x="420" y="750" width="210" height="70" as="geometry" />
        </mxCell>
        <mxCell id="UmWm9GWyAPiXQZQgzfcU-23" value="not&amp;nbsp; null" style="text;html=1;strokeColor=#BD7000;fillColor=#f0a30a;align=center;verticalAlign=middle;whiteSpace=wrap;rounded=0;shadow=0;glass=1;labelBackgroundColor=none;labelBorderColor=none;sketch=1;fontFamily=Comic Sans MS;fontSize=18;fontColor=#000000;" vertex="1" parent="1">
          <mxGeometry x="780" y="600" width="100" height="30" as="geometry" />
        </mxCell>
        <mxCell id="UmWm9GWyAPiXQZQgzfcU-25" style="edgeStyle=orthogonalEdgeStyle;curved=1;rounded=1;sketch=1;orthogonalLoop=1;jettySize=auto;html=1;entryX=1;entryY=0.5;entryDx=0;entryDy=0;shadow=1;fontFamily=Comic Sans MS;fontSize=18;fontColor=#006600;strokeColor=#82B366;strokeWidth=2;fillColor=#F2CC8F;" edge="1" parent="1" source="UmWm9GWyAPiXQZQgzfcU-24" target="UmWm9GWyAPiXQZQgzfcU-10">
          <mxGeometry relative="1" as="geometry">
            <Array as="points">
              <mxPoint x="870" y="1120" />
            </Array>
          </mxGeometry>
        </mxCell>
        <mxCell id="UmWm9GWyAPiXQZQgzfcU-24" value="&lt;font color=&quot;#006600&quot;&gt;用cell对象完成计数&lt;/font&gt;" style="text;html=1;strokeColor=#2D7600;fillColor=#60a917;align=center;verticalAlign=middle;whiteSpace=wrap;rounded=1;fontSize=18;sketch=1;fontColor=#ffffff;" vertex="1" parent="1">
          <mxGeometry x="790" y="750" width="160" height="60" as="geometry" />
        </mxCell>
      </root>
    </mxGraphModel>
  </diagram>
  <diagram name="fullAddCount-简易流程 的副本" id="_qDt4jjy-UOnnA858Fek">
    <mxGraphModel dx="979" dy="1753" grid="1" gridSize="10" guides="1" tooltips="1" connect="1" arrows="1" fold="1" page="1" pageScale="1" pageWidth="827" pageHeight="1169" background="#F4F1DE" math="0" shadow="0">
      <root>
        <mxCell id="7RjFdWi0lBWJTUVtVQrz-0" />
        <mxCell id="7RjFdWi0lBWJTUVtVQrz-1" parent="7RjFdWi0lBWJTUVtVQrz-0" />
        <mxCell id="7RjFdWi0lBWJTUVtVQrz-14" value="end" style="ellipse;whiteSpace=wrap;html=1;rounded=1;shadow=0;glass=0;labelBackgroundColor=none;labelBorderColor=none;sketch=0;fontFamily=Comic Sans MS;fontSize=24;strokeColor=#B20000;fillColor=#e51400;fontColor=#ffffff;" vertex="1" parent="7RjFdWi0lBWJTUVtVQrz-1">
          <mxGeometry x="260" y="1220" width="120" height="80" as="geometry" />
        </mxCell>
        <mxCell id="d3l-JBXzxrqrUFWjcbp0-5" style="edgeStyle=orthogonalEdgeStyle;curved=1;rounded=1;sketch=1;orthogonalLoop=1;jettySize=auto;html=1;entryX=0.5;entryY=0;entryDx=0;entryDy=0;fontFamily=Comic Sans MS;fontSize=18;fontColor=#393C56;strokeColor=#82B366;strokeWidth=3;fillColor=#F2CC8F;" edge="1" parent="7RjFdWi0lBWJTUVtVQrz-1" source="7RjFdWi0lBWJTUVtVQrz-23" target="7RjFdWi0lBWJTUVtVQrz-33">
          <mxGeometry relative="1" as="geometry">
            <Array as="points">
              <mxPoint x="1130" y="170" />
              <mxPoint x="1130" y="395" />
              <mxPoint x="1145" y="395" />
            </Array>
          </mxGeometry>
        </mxCell>
        <mxCell id="d3l-JBXzxrqrUFWjcbp0-6" style="edgeStyle=orthogonalEdgeStyle;curved=1;rounded=1;sketch=1;orthogonalLoop=1;jettySize=auto;html=1;entryX=0.5;entryY=0;entryDx=0;entryDy=0;fontFamily=Comic Sans MS;fontSize=18;fontColor=#393C56;strokeColor=#82B366;strokeWidth=3;fillColor=#F2CC8F;" edge="1" parent="7RjFdWi0lBWJTUVtVQrz-1" source="7RjFdWi0lBWJTUVtVQrz-23" target="d3l-JBXzxrqrUFWjcbp0-0">
          <mxGeometry relative="1" as="geometry">
            <Array as="points">
              <mxPoint x="635" y="170" />
            </Array>
          </mxGeometry>
        </mxCell>
        <mxCell id="7RjFdWi0lBWJTUVtVQrz-23" value="获取到CounterCell对象&lt;br&gt;简称cell" style="rhombus;whiteSpace=wrap;html=1;rounded=1;shadow=0;glass=1;labelBackgroundColor=none;labelBorderColor=none;sketch=1;fontFamily=Comic Sans MS;fontSize=18;fontColor=#CC0000;strokeColor=#999900;fillColor=#F2CC8F;" vertex="1" parent="7RjFdWi0lBWJTUVtVQrz-1">
          <mxGeometry x="730" y="130" width="290" height="77.5" as="geometry" />
        </mxCell>
        <mxCell id="7RjFdWi0lBWJTUVtVQrz-24" value="not&amp;nbsp; null" style="text;html=1;strokeColor=#BD7000;fillColor=#f0a30a;align=center;verticalAlign=middle;whiteSpace=wrap;rounded=0;shadow=0;glass=1;labelBackgroundColor=none;labelBorderColor=none;sketch=1;fontFamily=Comic Sans MS;fontSize=18;fontColor=#000000;" vertex="1" parent="7RjFdWi0lBWJTUVtVQrz-1">
          <mxGeometry x="710" y="100" width="80" height="40" as="geometry" />
        </mxCell>
        <mxCell id="7RjFdWi0lBWJTUVtVQrz-25" style="edgeStyle=orthogonalEdgeStyle;curved=1;rounded=1;sketch=1;orthogonalLoop=1;jettySize=auto;html=1;shadow=1;fontFamily=Comic Sans MS;fontSize=18;fontColor=#CC0000;strokeColor=#82B366;strokeWidth=2;fillColor=#F2CC8F;" edge="1" parent="7RjFdWi0lBWJTUVtVQrz-1" source="7RjFdWi0lBWJTUVtVQrz-27" target="7RjFdWi0lBWJTUVtVQrz-14">
          <mxGeometry relative="1" as="geometry" />
        </mxCell>
        <mxCell id="7RjFdWi0lBWJTUVtVQrz-26" style="edgeStyle=orthogonalEdgeStyle;curved=1;rounded=1;sketch=1;orthogonalLoop=1;jettySize=auto;html=1;shadow=1;fontFamily=Comic Sans MS;fontSize=18;fontColor=#CC0000;strokeColor=#82B366;strokeWidth=2;fillColor=#F2CC8F;entryX=0.5;entryY=0;entryDx=0;entryDy=0;" edge="1" parent="7RjFdWi0lBWJTUVtVQrz-1" source="7RjFdWi0lBWJTUVtVQrz-27" target="7RjFdWi0lBWJTUVtVQrz-38">
          <mxGeometry relative="1" as="geometry">
            <mxPoint x="790" y="890" as="targetPoint" />
            <Array as="points">
              <mxPoint x="795" y="700" />
            </Array>
          </mxGeometry>
        </mxCell>
        <mxCell id="7RjFdWi0lBWJTUVtVQrz-27" value="CAS：cell计数" style="rhombus;whiteSpace=wrap;html=1;rounded=1;shadow=0;glass=1;labelBackgroundColor=none;labelBorderColor=none;sketch=1;fontFamily=Comic Sans MS;fontSize=18;fontColor=#CC0000;strokeColor=#999900;fillColor=#F2CC8F;" vertex="1" parent="7RjFdWi0lBWJTUVtVQrz-1">
          <mxGeometry x="540" y="660" width="190" height="80" as="geometry" />
        </mxCell>
        <mxCell id="7RjFdWi0lBWJTUVtVQrz-28" value="fail" style="text;html=1;strokeColor=#B09500;fillColor=#e3c800;align=center;verticalAlign=middle;whiteSpace=wrap;rounded=1;shadow=0;labelBackgroundColor=none;labelBorderColor=none;sketch=1;fontFamily=Comic Sans MS;fontSize=24;glass=0;fontColor=#000000;" vertex="1" parent="7RjFdWi0lBWJTUVtVQrz-1">
          <mxGeometry x="1300" y="420" width="100" height="35" as="geometry" />
        </mxCell>
        <mxCell id="7RjFdWi0lBWJTUVtVQrz-30" value="&lt;font color=&quot;#cc0000&quot;&gt;null&lt;/font&gt;" style="text;html=1;strokeColor=#BD7000;fillColor=#f0a30a;align=center;verticalAlign=middle;whiteSpace=wrap;rounded=1;shadow=0;glass=1;labelBackgroundColor=none;labelBorderColor=none;sketch=1;fontFamily=Comic Sans MS;fontSize=18;fontColor=#000000;" vertex="1" parent="7RjFdWi0lBWJTUVtVQrz-1">
          <mxGeometry x="980" y="90" width="60" height="30" as="geometry" />
        </mxCell>
        <mxCell id="7RjFdWi0lBWJTUVtVQrz-32" style="edgeStyle=orthogonalEdgeStyle;curved=1;rounded=1;sketch=1;orthogonalLoop=1;jettySize=auto;html=1;shadow=1;fontFamily=Comic Sans MS;fontSize=18;fontColor=#CC0000;strokeColor=#82B366;strokeWidth=2;fillColor=#F2CC8F;entryX=0.5;entryY=0;entryDx=0;entryDy=0;" edge="1" parent="7RjFdWi0lBWJTUVtVQrz-1" source="7RjFdWi0lBWJTUVtVQrz-33" target="7RjFdWi0lBWJTUVtVQrz-49">
          <mxGeometry relative="1" as="geometry">
            <mxPoint x="1145" y="920" as="targetPoint" />
          </mxGeometry>
        </mxCell>
        <mxCell id="0eiSnKj4YImB7KBg_Zge-11" style="edgeStyle=orthogonalEdgeStyle;curved=1;rounded=1;sketch=1;orthogonalLoop=1;jettySize=auto;html=1;fontFamily=Comic Sans MS;fontSize=18;fontColor=#393C56;strokeColor=#82B366;strokeWidth=3;fillColor=#F2CC8F;entryX=0;entryY=0.5;entryDx=0;entryDy=0;" edge="1" parent="7RjFdWi0lBWJTUVtVQrz-1" source="7RjFdWi0lBWJTUVtVQrz-33" target="0eiSnKj4YImB7KBg_Zge-12">
          <mxGeometry relative="1" as="geometry">
            <mxPoint x="1420" y="780" as="targetPoint" />
          </mxGeometry>
        </mxCell>
        <mxCell id="7RjFdWi0lBWJTUVtVQrz-33" value="CAS：创建cell设置到table中，计数成功" style="rhombus;whiteSpace=wrap;html=1;rounded=1;shadow=0;glass=1;labelBackgroundColor=none;labelBorderColor=none;sketch=1;fontFamily=Comic Sans MS;fontSize=18;fontColor=#CC0000;strokeColor=#999900;fillColor=#F2CC8F;" vertex="1" parent="7RjFdWi0lBWJTUVtVQrz-1">
          <mxGeometry x="950" y="440" width="390" height="100" as="geometry" />
        </mxCell>
        <mxCell id="7RjFdWi0lBWJTUVtVQrz-34" value="success" style="text;html=1;strokeColor=#B09500;fillColor=#e3c800;align=center;verticalAlign=middle;whiteSpace=wrap;rounded=1;shadow=0;labelBackgroundColor=none;labelBorderColor=none;sketch=1;fontFamily=Comic Sans MS;fontSize=24;glass=0;fontColor=#000000;" vertex="1" parent="7RjFdWi0lBWJTUVtVQrz-1">
          <mxGeometry x="610" y="1134" width="100" height="35" as="geometry" />
        </mxCell>
        <mxCell id="7RjFdWi0lBWJTUVtVQrz-35" value="fail" style="text;html=1;strokeColor=#B09500;fillColor=#e3c800;align=center;verticalAlign=middle;whiteSpace=wrap;rounded=1;shadow=0;labelBackgroundColor=none;labelBorderColor=none;sketch=1;fontFamily=Comic Sans MS;fontSize=24;glass=0;fontColor=#000000;" vertex="1" parent="7RjFdWi0lBWJTUVtVQrz-1">
          <mxGeometry x="710" y="650" width="60" height="40" as="geometry" />
        </mxCell>
        <mxCell id="7RjFdWi0lBWJTUVtVQrz-36" style="edgeStyle=orthogonalEdgeStyle;curved=1;rounded=1;sketch=1;orthogonalLoop=1;jettySize=auto;html=1;shadow=1;fontFamily=Comic Sans MS;fontSize=18;fontColor=#CC0000;strokeColor=#82B366;strokeWidth=2;fillColor=#F2CC8F;entryX=0.5;entryY=0;entryDx=0;entryDy=0;" edge="1" parent="7RjFdWi0lBWJTUVtVQrz-1" source="7RjFdWi0lBWJTUVtVQrz-38" target="7RjFdWi0lBWJTUVtVQrz-44">
          <mxGeometry relative="1" as="geometry">
            <mxPoint x="610" y="1060" as="targetPoint" />
          </mxGeometry>
        </mxCell>
        <mxCell id="d3l-JBXzxrqrUFWjcbp0-9" style="edgeStyle=orthogonalEdgeStyle;curved=1;rounded=1;sketch=1;orthogonalLoop=1;jettySize=auto;html=1;fontFamily=Comic Sans MS;fontSize=18;fontColor=#393C56;strokeColor=#82B366;strokeWidth=3;fillColor=#F2CC8F;entryX=0.5;entryY=0;entryDx=0;entryDy=0;" edge="1" parent="7RjFdWi0lBWJTUVtVQrz-1" source="7RjFdWi0lBWJTUVtVQrz-38" target="7RjFdWi0lBWJTUVtVQrz-48">
          <mxGeometry relative="1" as="geometry">
            <mxPoint x="980" y="1000" as="targetPoint" />
          </mxGeometry>
        </mxCell>
        <mxCell id="7RjFdWi0lBWJTUVtVQrz-38" value="判断是否扩容" style="rhombus;whiteSpace=wrap;html=1;rounded=1;shadow=0;glass=1;labelBackgroundColor=none;labelBorderColor=none;sketch=1;fontFamily=Comic Sans MS;fontSize=18;fontColor=#CC0000;strokeColor=#999900;fillColor=#F2CC8F;" vertex="1" parent="7RjFdWi0lBWJTUVtVQrz-1">
          <mxGeometry x="720" y="797.5" width="170" height="90" as="geometry" />
        </mxCell>
        <mxCell id="7RjFdWi0lBWJTUVtVQrz-39" value="扩容" style="text;html=1;strokeColor=#B09500;fillColor=#e3c800;align=center;verticalAlign=middle;whiteSpace=wrap;rounded=1;shadow=0;labelBackgroundColor=none;labelBorderColor=none;sketch=1;fontFamily=Comic Sans MS;fontSize=24;glass=0;fontColor=#000000;" vertex="1" parent="7RjFdWi0lBWJTUVtVQrz-1">
          <mxGeometry x="650" y="797.5" width="70" height="40" as="geometry" />
        </mxCell>
        <mxCell id="7RjFdWi0lBWJTUVtVQrz-40" value="不扩容" style="text;html=1;strokeColor=#B09500;fillColor=#e3c800;align=center;verticalAlign=middle;whiteSpace=wrap;rounded=1;shadow=0;labelBackgroundColor=none;labelBorderColor=none;sketch=1;fontFamily=Comic Sans MS;fontSize=24;glass=0;fontColor=#000000;" vertex="1" parent="7RjFdWi0lBWJTUVtVQrz-1">
          <mxGeometry x="870" y="790" width="80" height="40" as="geometry" />
        </mxCell>
        <mxCell id="7RjFdWi0lBWJTUVtVQrz-41" value="回到循环，在下次循环中继续尝试累加值" style="ellipse;whiteSpace=wrap;html=1;rounded=1;shadow=0;glass=1;labelBackgroundColor=none;labelBorderColor=none;sketch=0;fontFamily=Comic Sans MS;fontSize=18;fontColor=#ffffff;strokeColor=#005700;fillColor=#008a00;" vertex="1" parent="7RjFdWi0lBWJTUVtVQrz-1">
          <mxGeometry x="890" y="1180" width="170" height="130" as="geometry" />
        </mxCell>
        <mxCell id="7RjFdWi0lBWJTUVtVQrz-42" style="edgeStyle=orthogonalEdgeStyle;curved=1;rounded=1;sketch=1;orthogonalLoop=1;jettySize=auto;html=1;entryX=0;entryY=0.5;entryDx=0;entryDy=0;shadow=1;fontFamily=Comic Sans MS;fontSize=18;fontColor=#CC0000;strokeColor=#82B366;strokeWidth=2;fillColor=#F2CC8F;" edge="1" parent="7RjFdWi0lBWJTUVtVQrz-1" source="7RjFdWi0lBWJTUVtVQrz-44" target="7RjFdWi0lBWJTUVtVQrz-48">
          <mxGeometry relative="1" as="geometry" />
        </mxCell>
        <mxCell id="7RjFdWi0lBWJTUVtVQrz-43" style="edgeStyle=orthogonalEdgeStyle;curved=1;rounded=1;sketch=1;orthogonalLoop=1;jettySize=auto;html=1;shadow=1;fontFamily=Comic Sans MS;fontSize=18;fontColor=#CC0000;strokeColor=#82B366;strokeWidth=2;fillColor=#F2CC8F;entryX=0.5;entryY=1;entryDx=0;entryDy=0;" edge="1" parent="7RjFdWi0lBWJTUVtVQrz-1" source="7RjFdWi0lBWJTUVtVQrz-44" target="7RjFdWi0lBWJTUVtVQrz-41">
          <mxGeometry relative="1" as="geometry">
            <mxPoint x="605" y="1250" as="targetPoint" />
            <Array as="points">
              <mxPoint x="605" y="1380" />
              <mxPoint x="975" y="1380" />
            </Array>
          </mxGeometry>
        </mxCell>
        <mxCell id="7RjFdWi0lBWJTUVtVQrz-44" value="CAS:resize" style="rhombus;whiteSpace=wrap;html=1;rounded=1;shadow=0;glass=1;labelBackgroundColor=none;labelBorderColor=none;sketch=1;fontFamily=Comic Sans MS;fontSize=18;fontColor=#CC0000;strokeColor=#999900;fillColor=#F2CC8F;" vertex="1" parent="7RjFdWi0lBWJTUVtVQrz-1">
          <mxGeometry x="540" y="1010" width="130" height="110" as="geometry" />
        </mxCell>
        <mxCell id="7RjFdWi0lBWJTUVtVQrz-45" value="success" style="text;html=1;strokeColor=#B09500;fillColor=#e3c800;align=center;verticalAlign=middle;whiteSpace=wrap;rounded=1;shadow=0;labelBackgroundColor=none;labelBorderColor=none;sketch=1;fontFamily=Comic Sans MS;fontSize=24;glass=0;fontColor=#000000;" vertex="1" parent="7RjFdWi0lBWJTUVtVQrz-1">
          <mxGeometry x="1160" y="567" width="100" height="35" as="geometry" />
        </mxCell>
        <mxCell id="7RjFdWi0lBWJTUVtVQrz-46" value="fail" style="text;html=1;strokeColor=#B09500;fillColor=#e3c800;align=center;verticalAlign=middle;whiteSpace=wrap;rounded=1;shadow=0;labelBackgroundColor=none;labelBorderColor=none;sketch=1;fontFamily=Comic Sans MS;fontSize=24;glass=0;fontColor=#000000;" vertex="1" parent="7RjFdWi0lBWJTUVtVQrz-1">
          <mxGeometry x="700" y="1010" width="133" height="40" as="geometry" />
        </mxCell>
        <mxCell id="d3l-JBXzxrqrUFWjcbp0-10" style="edgeStyle=orthogonalEdgeStyle;curved=1;rounded=1;sketch=1;orthogonalLoop=1;jettySize=auto;html=1;entryX=0.529;entryY=0.077;entryDx=0;entryDy=0;entryPerimeter=0;fontFamily=Comic Sans MS;fontSize=18;fontColor=#393C56;strokeColor=#82B366;strokeWidth=3;fillColor=#F2CC8F;" edge="1" parent="7RjFdWi0lBWJTUVtVQrz-1" source="7RjFdWi0lBWJTUVtVQrz-48" target="7RjFdWi0lBWJTUVtVQrz-41">
          <mxGeometry relative="1" as="geometry" />
        </mxCell>
        <mxCell id="7RjFdWi0lBWJTUVtVQrz-48" value="重新生成随机数" style="rounded=1;whiteSpace=wrap;html=1;shadow=0;glass=1;labelBackgroundColor=none;labelBorderColor=none;sketch=1;fontFamily=Comic Sans MS;fontSize=18;fontColor=#CC0000;strokeColor=#999900;fillColor=#F2CC8F;" vertex="1" parent="7RjFdWi0lBWJTUVtVQrz-1">
          <mxGeometry x="920" y="1035" width="120" height="60" as="geometry" />
        </mxCell>
        <mxCell id="7RjFdWi0lBWJTUVtVQrz-49" value="end" style="ellipse;whiteSpace=wrap;html=1;aspect=fixed;rounded=1;shadow=0;glass=1;labelBackgroundColor=none;labelBorderColor=none;sketch=0;fontFamily=Comic Sans MS;fontSize=18;fontColor=#ffffff;strokeColor=#B20000;fillColor=#e51400;" vertex="1" parent="7RjFdWi0lBWJTUVtVQrz-1">
          <mxGeometry x="1105" y="700" width="80" height="80" as="geometry" />
        </mxCell>
        <mxCell id="7RjFdWi0lBWJTUVtVQrz-50" value="success" style="text;html=1;strokeColor=#B09500;fillColor=#e3c800;align=center;verticalAlign=middle;whiteSpace=wrap;rounded=1;shadow=0;labelBackgroundColor=none;labelBorderColor=none;sketch=1;fontFamily=Comic Sans MS;fontSize=24;glass=0;fontColor=#000000;" vertex="1" parent="7RjFdWi0lBWJTUVtVQrz-1">
          <mxGeometry x="400" y="670" width="100" height="35" as="geometry" />
        </mxCell>
        <mxCell id="d3l-JBXzxrqrUFWjcbp0-4" style="edgeStyle=orthogonalEdgeStyle;curved=1;rounded=1;sketch=1;orthogonalLoop=1;jettySize=auto;html=1;entryX=0.5;entryY=0;entryDx=0;entryDy=0;fontFamily=Comic Sans MS;fontSize=18;fontColor=#393C56;strokeColor=#82B366;strokeWidth=3;fillColor=#F2CC8F;" edge="1" parent="7RjFdWi0lBWJTUVtVQrz-1" source="0eiSnKj4YImB7KBg_Zge-0" target="7RjFdWi0lBWJTUVtVQrz-23">
          <mxGeometry relative="1" as="geometry" />
        </mxCell>
        <mxCell id="0eiSnKj4YImB7KBg_Zge-0" value="&lt;font style=&quot;font-size: 18px;&quot;&gt;&lt;b&gt;table not null&lt;/b&gt;&lt;/font&gt;" style="rounded=1;whiteSpace=wrap;html=1;labelBackgroundColor=none;labelBorderColor=none;sketch=1;strokeColor=#82b366;fillColor=#d5e8d4;shadow=0;fontSize=16;fontColor=#003300;" vertex="1" parent="7RjFdWi0lBWJTUVtVQrz-1">
          <mxGeometry x="800" y="-10" width="150" height="50" as="geometry" />
        </mxCell>
        <mxCell id="0eiSnKj4YImB7KBg_Zge-10" value="在addCount方法中，线程CAS竞争CounerCell对象累加值失败时会将该值设置为false；" style="shape=callout;whiteSpace=wrap;html=1;perimeter=calloutPerimeter;rounded=1;sketch=0;fontFamily=Comic Sans MS;fontSize=18;fontColor=#393C56;strokeColor=#E07A5F;fillColor=#F2CC8F;position2=1;" vertex="1" parent="7RjFdWi0lBWJTUVtVQrz-1">
          <mxGeometry x="350" y="250" width="257" height="130" as="geometry" />
        </mxCell>
        <mxCell id="0eiSnKj4YImB7KBg_Zge-12" value="回到循环，在下次循环中继续尝试累加值" style="ellipse;whiteSpace=wrap;html=1;rounded=1;shadow=0;glass=1;labelBackgroundColor=none;labelBorderColor=none;sketch=0;fontFamily=Comic Sans MS;fontSize=18;fontColor=#ffffff;strokeColor=#005700;fillColor=#008a00;" vertex="1" parent="7RjFdWi0lBWJTUVtVQrz-1">
          <mxGeometry x="1470" y="540" width="170" height="130" as="geometry" />
        </mxCell>
        <mxCell id="d3l-JBXzxrqrUFWjcbp0-7" style="edgeStyle=orthogonalEdgeStyle;curved=1;rounded=1;sketch=1;orthogonalLoop=1;jettySize=auto;html=1;entryX=0.5;entryY=0;entryDx=0;entryDy=0;fontFamily=Comic Sans MS;fontSize=18;fontColor=#393C56;strokeColor=#82B366;strokeWidth=3;fillColor=#F2CC8F;" edge="1" parent="7RjFdWi0lBWJTUVtVQrz-1" source="d3l-JBXzxrqrUFWjcbp0-0" target="7RjFdWi0lBWJTUVtVQrz-27">
          <mxGeometry relative="1" as="geometry" />
        </mxCell>
        <mxCell id="d3l-JBXzxrqrUFWjcbp0-8" style="edgeStyle=orthogonalEdgeStyle;curved=1;rounded=1;sketch=1;orthogonalLoop=1;jettySize=auto;html=1;entryX=0.997;entryY=0.609;entryDx=0;entryDy=0;entryPerimeter=0;fontFamily=Comic Sans MS;fontSize=18;fontColor=#393C56;strokeColor=#82B366;strokeWidth=3;fillColor=#F2CC8F;" edge="1" parent="7RjFdWi0lBWJTUVtVQrz-1" source="d3l-JBXzxrqrUFWjcbp0-0" target="d3l-JBXzxrqrUFWjcbp0-3">
          <mxGeometry relative="1" as="geometry" />
        </mxCell>
        <mxCell id="d3l-JBXzxrqrUFWjcbp0-0" value="wasUncontended" style="rhombus;whiteSpace=wrap;html=1;rounded=1;sketch=1;fontFamily=Comic Sans MS;fontSize=18;fontColor=#393C56;strokeColor=#E07A5F;fillColor=#F2CC8F;" vertex="1" parent="7RjFdWi0lBWJTUVtVQrz-1">
          <mxGeometry x="530" y="380" width="210" height="80" as="geometry" />
        </mxCell>
        <mxCell id="d3l-JBXzxrqrUFWjcbp0-1" value="false" style="text;html=1;strokeColor=#BD7000;fillColor=#f0a30a;align=center;verticalAlign=middle;whiteSpace=wrap;rounded=0;sketch=1;fontFamily=Comic Sans MS;fontSize=18;fontColor=#000000;" vertex="1" parent="7RjFdWi0lBWJTUVtVQrz-1">
          <mxGeometry x="336.5" y="380" width="60" height="30" as="geometry" />
        </mxCell>
        <mxCell id="d3l-JBXzxrqrUFWjcbp0-2" value="true" style="text;html=1;strokeColor=#BD7000;fillColor=#f0a30a;align=center;verticalAlign=middle;whiteSpace=wrap;rounded=0;sketch=1;fontFamily=Comic Sans MS;fontSize=18;fontColor=#000000;" vertex="1" parent="7RjFdWi0lBWJTUVtVQrz-1">
          <mxGeometry x="550" y="520" width="60" height="30" as="geometry" />
        </mxCell>
        <mxCell id="d3l-JBXzxrqrUFWjcbp0-3" value="将值设置为true，回到循环继续尝试累加值" style="ellipse;whiteSpace=wrap;html=1;rounded=1;sketch=0;fontFamily=Comic Sans MS;fontSize=18;fontColor=#ffffff;strokeColor=#005700;fillColor=#008a00;" vertex="1" parent="7RjFdWi0lBWJTUVtVQrz-1">
          <mxGeometry x="80" y="360" width="220" height="100" as="geometry" />
        </mxCell>
      </root>
    </mxGraphModel>
  </diagram>
</mxfile>
